<?xml version="1.0" encoding="UTF-8"?>
<svg id="Layer_2" data-name="Layer 2" xmlns="http://www.w3.org/2000/svg" viewBox="0 0 117.75 75.88">
  <defs>
    <style>
      .cls-1 {
        fill: #8f771d;
        stroke-width: 0px;
      }
    </style>
  </defs>
  <g id="Layer_1-2" data-name="Layer 1">
    <g>
      <path class="cls-1" d="M35.05,35.37c1.12,1.07,2.41,1.91,3.79,2.61,1.37.7,2.81,1.24,4.27,1.71,1.8.58,3.63,1.04,5.46,1.52,1.5.4,3,.78,4.47,1.28,1.03.35,2.04.74,3,1.25.98.52,1.88,1.14,2.61,1.99.02.02.04.04.06.06.03.03.07.04.11.01.02-.02.02-.05.02-.08-.13-.57-.35-1.1-.63-1.61-.49-.9-1.17-1.66-1.96-2.31-.86-.72-1.82-1.29-2.82-1.78-1.66-.81-3.4-1.44-5.18-1.95-2.37-.68-4.74-1.35-7.11-2.04-1.57-.45-3.12-.97-4.62-1.62-1.26-.55-2.46-1.19-3.54-2.06-.05-.04-.1-.1-.18-.09-.06.13.04.21.09.31.58,1.04,1.31,1.97,2.17,2.8Z"/>
      <path class="cls-1" d="M36.24,31.04c1.32.99,2.77,1.74,4.28,2.37,1.67.69,3.4,1.22,5.14,1.69,1.81.49,3.63.95,5.43,1.45,1.33.37,2.65.79,3.92,1.35,1.01.44,1.97.97,2.83,1.69.31.26.6.56.87.87.02.02.05.03.07.03.05,0,.06-.05.05-.09-.09-.41-.24-.81-.42-1.2-.5-1.09-1.26-1.97-2.17-2.73-.9-.74-1.89-1.33-2.94-1.83-1.38-.66-2.79-1.22-4.26-1.65-2.54-.74-5.09-1.46-7.64-2.2-1.65-.48-3.29-1.01-4.87-1.69-1.27-.55-2.49-1.2-3.58-2.08-.04-.03-.09-.06-.17-.12-.02.22.09.32.15.44.84,1.47,1.96,2.69,3.3,3.7Z"/>
      <path class="cls-1" d="M68.31,33.16c-1.73.53-3.39,1.22-4.97,2.13-1.01.58-1.92,1.28-2.71,2.15-.75.83-1.26,1.8-1.57,2.87-.01.04-.01.08-.02.12,0,.01,0,.03.01.04.02,0,.05.02.07,0,.04-.02.07-.05.1-.08.83-.95,1.86-1.63,2.99-2.18,1.1-.54,2.25-.98,3.43-1.32,1.54-.44,3.1-.86,4.65-1.27,1.61-.43,3.22-.84,4.8-1.37,1.7-.57,3.36-1.23,4.92-2.13,1.35-.78,2.58-1.73,3.61-2.91.54-.62,1.01-1.29,1.4-2.01.04-.08.13-.16.07-.27-.03,0-.05,0-.07.02-.06.04-.12.08-.17.12-.74.6-1.55,1.08-2.4,1.5-1.07.54-2.19.97-3.32,1.37-1.75.61-3.53,1.09-5.3,1.6-1.84.53-3.69,1.05-5.52,1.61Z"/>
      <path class="cls-1" d="M83.1,35.09c.75-.76,1.39-1.6,1.9-2.53.05-.09.15-.18.08-.32-.06.04-.12.07-.18.11-1.03.83-2.18,1.46-3.38,1.99-1.47.65-3,1.16-4.54,1.61-2.53.74-5.06,1.47-7.6,2.2-1.82.52-3.59,1.17-5.28,2.04-.68.35-1.33.74-1.95,1.19-.82.61-1.56,1.3-2.14,2.15-.42.61-.73,1.27-.91,1.99-.07.07-.09.16-.08.26,0,.05.05.06.09.05.05-.02.09-.07.1-.12.98-1.08,2.18-1.82,3.49-2.41.95-.42,1.93-.78,2.93-1.08,1.43-.43,2.88-.79,4.32-1.18,1.61-.44,3.22-.84,4.8-1.35,1.52-.49,3.01-1.06,4.43-1.79,1.44-.74,2.76-1.64,3.91-2.8Z"/>
      <path class="cls-1" d="M44.97,9.96c.05-.08.11-.15.16-.24.23-.37.46-.75.69-1.12.25-.41.51-.81.82-1.18.73-.89,1.64-1.5,2.77-1.76.3-.07.61-.12.91-.17.74-.12,1.48-.24,2.22-.29,1.14-.07,2.28-.12,3.42-.16,2.19-.07,4.37.03,6.53.41.05.02.1.06.15.07.05.01.12.02.13-.05,0-.06-.04-.1-.1-.11-.79-.72-1.67-1.29-2.68-1.67-.98-.37-1.99-.51-3.03-.52-1.41-.01-2.82.06-4.23.15-.97.06-1.94.2-2.88.44-1.03.26-2.01.67-2.87,1.3-.73.53-1.31,1.2-1.67,2.04-.35.82-.47,1.68-.47,2.56,0,.04,0,.09.01.13.02.06,0,.15.1.17Z"/>
      <path class="cls-1" d="M58.33,28.64c-.7-.03-1.41-.1-2.1-.23-.37-.07-.74-.15-1.16-.23.09.21.21.34.35.45.52.39,1.04.78,1.61,1.09.52.29,1.07.51,1.66.6.22.03.45.04.67.07,1.09.12,2.19.17,3.29.2.93.03,1.86-.04,2.79-.14.98-.11,1.96-.27,2.91-.53.96-.26,1.86-.66,2.65-1.28.89-.71,1.48-1.61,1.78-2.71.14-.54.18-1.08.23-1.63.01-.17.08-.35-.06-.51-.15.09-.21.26-.3.4-.32.53-.63,1.07-.99,1.58-.36.51-.76.98-1.23,1.39-.56.48-1.18.82-1.91.96-.58.11-1.16.21-1.75.3-.61.1-1.23.15-1.85.2-.86.07-1.72.13-2.58.15-1.34.02-2.68-.07-4.02-.12Z"/>
      <path class="cls-1" d="M55.88,32.56c.66.42,1.35.76,2.11.97,1.61.46,3.13.27,4.52-.68.38-.26.73-.57,1.09-.87.07-.06.16-.11.18-.23-.11-.06-.21-.02-.32,0-.38.09-.77.19-1.15.27-.76.16-1.52.3-2.3.28-.96-.02-1.83-.28-2.62-.84-1.68-1.18-3.22-2.52-4.68-3.96-.8-.8-1.54-1.65-2.29-2.49-.76-.84-1.46-1.72-2.05-2.69-.06-.11-.11-.23-.24-.31-.06.15-.09.3-.07.45.09.71.18,1.43.39,2.12.17.57.4,1.12.78,1.59.99,1.25,2.01,2.47,3.15,3.59,1.07,1.05,2.24,1.98,3.51,2.78Z"/>
      <path class="cls-1" d="M44.07,21.56s.07.02.11.03c0-.02.02-.04.02-.05,0-.06-.02-.11-.03-.16-.24-.93-.45-1.86-.51-2.83-.07-1.09.12-2.1.77-3.01.65-.91,1.31-1.8,2.01-2.67.56-.69,1.15-1.35,1.8-1.96.59-.55,1.18-1.09,1.78-1.63.75-.67,1.53-1.3,2.33-1.89.53-.39,1.06-.8,1.59-1.2.01,0,.03,0,.04-.01.03-.02.08-.05.08-.08,0-.04-.04-.07-.08-.07-.16.01-.33-.02-.47.08,0,0,0,0,0,0-.34,0-.67.06-1.01.11-1.2.16-2.28.59-3.22,1.38-1.36,1.14-2.66,2.36-3.89,3.65-.58.6-1.11,1.24-1.58,1.93-.6.88-1.11,1.8-1.42,2.82-.28.96-.32,1.92-.03,2.88.31,1.05.89,1.94,1.71,2.68Z"/>
      <path class="cls-1" d="M47.56,14.83c.08-.57.15-1.15.22-1.72,0-.06.05-.14-.04-.18-.03.01-.06.02-.07.04-.4.51-.81,1.01-1.16,1.56-.45.71-.77,1.47-.88,2.31-.06.42-.1.84-.12,1.26-.08,1.71-.13,3.41-.01,5.12.08,1.1.26,2.18.59,3.24.23.71.51,1.41.92,2.03,1.09,1.64,3.07,2.54,5.04,2.28-.08-.14-.2-.17-.29-.23-.35-.21-.7-.42-1.05-.64-.51-.33-1-.69-1.44-1.1-.76-.7-1.27-1.54-1.42-2.58-.08-.57-.2-1.14-.29-1.71-.21-1.27-.35-2.54-.35-3.83,0-.83.04-1.66.06-2.49.04-1.13.14-2.25.3-3.37Z"/>
      <path class="cls-1" d="M66.42,3.34c.57.31,1.12.65,1.63,1.06,1.24,1.01,2.04,2.28,2.29,3.88.08.54.12,1.09.17,1.64.1,1.28.17,2.56.2,3.85.06,2.29-.16,4.56-.55,6.82,0,.05-.03.11.02.15.03-.01.06-.01.07-.03.41-.52.83-1.04,1.18-1.6.58-.94.91-1.96.93-3.08,0-.24.02-.48.02-.72.07-2.03.08-4.06-.11-6.09-.12-1.28-.52-2.48-1.17-3.59-.69-1.19-1.71-1.97-3-2.41-.65-.22-1.32-.29-2-.21-.02,0-.05.03-.06.04,0,.02,0,.06.02.07.12.08.24.15.36.22Z"/>
      <path class="cls-1" d="M72.66,19.57c-.99,1.14-2,2.26-3.06,3.34-.99,1.01-2.01,1.99-3.13,2.85-.77.59-1.56,1.16-2.34,1.74-.05.03-.12.05-.13.09-.01.07.06.08.11.07.15-.01.31.01.45-.08,0,0,0,0,0,0,.5,0,.98-.09,1.47-.19,1.06-.22,2-.68,2.8-1.41.39-.35.77-.7,1.16-1.06,1.26-1.16,2.47-2.35,3.6-3.64.85-.97,1.47-2.06,1.85-3.3.18-.61.3-1.24.27-1.88-.03-.64-.18-1.26-.42-1.85-.26-.64-.61-1.21-1.12-1.68-.08-.08-.17-.15-.26-.22-.02-.01-.07-.02-.08-.01-.02.03-.04.07-.04.1.01.08.04.16.06.25.17.64.33,1.28.4,1.95.11,1.07-.01,2.11-.42,3.11-.28.67-.68,1.26-1.16,1.81Z"/>
      <polygon class="cls-1" points="59.97 12.65 59.97 12.66 59.97 12.66 59.97 12.65"/>
      <path class="cls-1" d="M57.15,9.42c-.23.11-.45.24-.64.41-.52.45-.79,1.01-.66,1.71.31-.21.54-.48.65-.83.08,0,.14-.02.15-.12,0,0,0,0,0,0,0,0,0,0,0,0,0-.02,0-.04.02-.06.07-.04.08-.1.08-.16h0c.1,0,.16.05.16.16h0s-.07.05-.07.1c-.07.03-.09.09-.09.17-.08.04-.09.11-.08.19,0,0,0,0,0,0,0,0,0,0,0,0,0,.08,0,.17-.03.25-.1.33-.03.64.03.96.01.07.04.15.12.14.07,0,.11-.08.14-.15.01-.04.01-.08.03-.12.04-.12-.03-.35.24-.25,0,0,.05-.03.05-.05,0-.07.01-.15-.02-.21-.1-.19-.13-.36.07-.52.03-.03.03-.11.04-.16.04-.01.1-.01.11-.04.1-.19.25-.35.3-.56.08-.03.09-.09.09-.17.03,0,.06,0,.1,0,0,.02.01.04,0,.06,0,.07,0,.13,0,.2-.05.01-.08.05-.08.1,0,0,0,0,0,0,0,0,0,0,0,0,0,.02-.01.04-.03.06-.09.06-.07.16-.07.25,0,0,0,0,0,0h0s-.05.06-.08.09c-.08.05-.1.12-.07.2.02.05.05.1.07.14h0s0,0,0,0c-.06.12.12.16.1.23-.02.11-.11.19-.12.31,0,.1-.02.19.04.29.04.07.11.16.1.23-.02.17,0,.29.16.39.09.06,0,.22.13.31.12-.21.15-.44.09-.65-.05-.17,0-.25.09-.37.08-.12.14-.11.2,0,.17,0,.21.11.2.25,0,.04,0,.08,0,.13.03,1.1.03,2.2,0,3.3,0,.15-.01.31-.04.46-.06.28-.12.55-.05.83.02.1-.01.23-.05.33-.05.15-.08.29-.03.45.06.18,0,.36-.08.53-.06.11-.13.22-.19.33-.04.07-.1.14-.04.25.51,0,1.02.01,1.53-.01.03-.13-.04-.19-.07-.26-.09-.18-.18-.35-.26-.53-.03-.06-.06-.15-.04-.2.1-.24.07-.46-.04-.69-.05-.1-.04-.22,0-.33.03-.1.04-.19.02-.29-.13-.6-.11-1.21-.13-1.81-.03-.83-.01-1.66.02-2.5,0-.15.05-.23.21-.25.07,0,.13-.07.18.01.05.09.2.12.13.28-.11.22-.01.44.03.66,0,.02.03.05.06.05.02,0,.05-.02.06-.04.04-.08,0-.2.09-.26.05-.07.19-.1.14-.23-.05-.12,0-.23.06-.32.1-.13.08-.26.04-.39-.02-.07-.05-.13-.08-.2-.02-.06-.02-.1.04-.14.06-.03.06-.09.03-.14-.04-.06-.08-.12-.11-.18-.03-.05-.01-.08.03-.09.16-.04.04-.12.02-.18.01-.02.02-.05.04-.07.11-.1.14-.1.2.02.04.08.08.13.17.14.01.05,0,.14.04.16.23.16.16.35.09.56-.01.04-.02.08-.02.12,0,.05.04.08.08.07.11-.03.15.01.16.12.02.16.02.34.2.43.02-.02.05-.03.06-.05.03-.05.05-.1.06-.15.12-.41.1-.83,0-1.24.02-.07.02-.19.13-.06.02.02.05.02.07.04h0s0,0,0,0c.15.07.14.26.26.37.12.1.25.18.36.3.1-.71-.19-1.4-.77-1.8-.21-.14-.43-.26-.65-.4-.05-.03-.13-.06-.08-.17.13,0,.27-.01.41,0,.34.04.66.12.86.43.04.09.07.19.17.3,0-.23.05-.41-.08-.57,0,0,0,0,0,0-.11-.36-.42-.47-.73-.57-.37-.12-.75-.12-1.13-.08-.04-.04-.08-.08-.12-.12h0s0,0,0,0c.09-.11.19-.2.33-.22.23-.03.45-.06.68-.08.04.06.08.11.12.17,0,.01.03.02.03.02.02-.02.04-.04.04-.06,0-.06,0-.11-.06-.14,0,0,0,0,0,0-.13-.23-.34-.32-.59-.35-.32-.03-.64-.04-.92.17-.11.08-.15.24-.32.24-.06-.12-.13-.24-.19-.36-.03-.06-.04-.13-.06-.2,0-.05,0-.11,0-.16,0-.04-.04-.07-.09-.06-.02,0-.05.04-.05.06,0,.05,0,.11,0,.16h0,0c0,.21-.18.34-.22.54-.01.07-.09.05-.13,0-.11-.13-.21-.27-.38-.33-.47-.17-.91-.11-1.31.2-.06.04-.09.11-.1.18,0,.03,0,.06.02.08,0,0,.06,0,.07-.01.07-.12.17-.14.29-.12.18.02.36.02.54.07.13.03.26.11.34.23.02.03.03.09.02.12-.01.02-.07.04-.11.03-.51-.17-1.01-.06-1.48.14-.36.15-.51.44-.46.87.18-.22.34-.43.61-.51.27-.07.54-.09.84-.05-.04.15-.16.18-.25.23Z"/>
      <path class="cls-1" d="M68.02,15.63c0-.33-.25-.6-.57-.61-.35-.01-.63.25-.63.59,0,.33.24.59.57.61.34.01.63-.25.64-.59Z"/>
      <path class="cls-1" d="M50.56,15.03c-.34,0-.61.27-.6.62,0,.34.28.6.64.58.32-.02.57-.29.56-.61,0-.32-.28-.58-.59-.58Z"/>
      <path class="cls-1" d="M54.11,16.09c0-.29-.29-.56-.59-.54-.29.02-.52.26-.51.56,0,.31.26.55.58.53.29-.02.53-.27.52-.55Z"/>
      <path class="cls-1" d="M52.61,15.84c0-.3-.25-.54-.54-.54-.3,0-.57.27-.56.57,0,.3.27.54.59.53.29-.01.52-.26.51-.55Z"/>
      <path class="cls-1" d="M64.96,16.06c0-.3-.23-.54-.53-.54-.32,0-.57.23-.57.54,0,.28.25.55.53.56.28,0,.57-.23.57-.55Z"/>
      <path class="cls-1" d="M66.46,15.78c0-.32-.27-.57-.58-.55-.3.02-.52.27-.51.57.01.31.24.52.55.52.31,0,.54-.24.54-.54Z"/>
      <path class="cls-1" d="M67.53,18.59c-.26,0-.47.24-.46.5,0,.26.2.44.46.44.27,0,.49-.21.49-.47,0-.26-.23-.48-.49-.47Z"/>
      <path class="cls-1" d="M49.96,19.11c0,.26.23.49.48.48.24,0,.45-.22.46-.46.01-.28-.18-.48-.46-.49-.28,0-.48.19-.49.47Z"/>
      <path class="cls-1" d="M63.43,16.45c0-.26-.24-.49-.49-.47-.26.01-.46.25-.45.51.02.26.21.43.48.42.25,0,.46-.22.45-.46Z"/>
      <path class="cls-1" d="M55.48,16.47c-.01-.28-.23-.46-.5-.44-.25.02-.44.23-.43.48,0,.24.23.45.47.45.26,0,.48-.23.47-.49Z"/>
      <path class="cls-1" d="M65.41,19.04c-.02.24.18.47.43.49.25.02.47-.17.49-.42.02-.24-.17-.46-.42-.49-.23-.03-.47.19-.49.42Z"/>
      <path class="cls-1" d="M51.71,19.12c0,.24.23.46.47.45.23,0,.43-.21.43-.44,0-.25-.19-.46-.45-.47-.26,0-.46.19-.46.45Z"/>
      <path class="cls-1" d="M53.89,19.09c-.2-.02-.39.14-.41.34-.01.19.17.39.36.4.18.01.35-.15.37-.33.02-.21-.12-.39-.33-.41Z"/>
      <path class="cls-1" d="M56.44,16.68c-.2-.02-.38.15-.38.36,0,.2.17.37.37.37.18,0,.33-.17.34-.36,0-.19-.14-.35-.33-.37Z"/>
      <path class="cls-1" d="M61.19,16.98c0,.2.17.38.37.37.2,0,.37-.19.35-.39-.02-.19-.18-.33-.37-.33-.19,0-.35.17-.36.34Z"/>
      <path class="cls-1" d="M63.76,19.43c.01.2.16.34.36.34.21,0,.37-.17.36-.38,0-.2-.16-.34-.36-.34-.23,0-.37.16-.36.38Z"/>
      <path class="cls-1" d="M60.22,17.48c-.16,0-.3.14-.3.29,0,.17.15.32.32.31.15,0,.3-.15.3-.29,0-.16-.16-.31-.32-.31Z"/>
      <path class="cls-1" d="M57.76,17.5c-.15-.01-.31.13-.33.27-.02.14.12.31.27.33.17.03.33-.11.34-.29,0-.16-.12-.3-.28-.31Z"/>
      <path class="cls-1" d="M62.54,19.78c-.12.02-.22.13-.21.27,0,.13.11.24.24.24.14,0,.27-.14.26-.27-.01-.13-.16-.25-.29-.24Z"/>
      <path class="cls-1" d="M55.65,20.06c0-.13-.12-.24-.25-.24-.13,0-.25.11-.26.23,0,.14.13.27.27.26.12,0,.24-.13.23-.26Z"/>
      <path class="cls-1" d="M54.19,2.07c.07,0,.14-.02.19-.08,0,0,0,0,0,0,.48-.1.96-.21,1.45-.31.59-.13,1.19-.22,1.8-.23,1.07-.01,2.03.28,2.9.9.92.65,1.82,1.33,2.65,2.11.65.61,1.29,1.22,1.94,1.83,1.03.97,2,1.99,2.9,3.08.55.66,1.07,1.34,1.56,2.06.05.07.07.2.22.15.02-.34-.02-.67-.07-1.01-.15-1.05-.47-2.03-1.02-2.94-.41-.68-.91-1.29-1.46-1.86-.75-.78-1.55-1.52-2.34-2.27-.74-.7-1.52-1.35-2.36-1.93-.93-.63-1.91-1.13-3.01-1.4-.72-.18-1.46-.23-2.18-.1-1.27.21-2.3.89-3.16,1.82-.02.02-.05.03-.07.05-.02.02-.03.05-.03.07,0,.05.05.06.09.06Z"/>
      <path class="cls-1" d="M50.11,17.53c.09.06.19.05.29.03h0c.27.02.53.05.8.07,1.09.08,2.15.3,3.19.64,1.36.44,2.6,1.09,3.67,2.04.09.08.21.14.25.28-.03.03-.05.07-.08.1-.45.42-.91.85-1.36,1.27-.06.06-.13.11-.19.16-.07.05-.14.03-.17-.04-.06-.16-.11-.32-.18-.47-.16-.35-.55-.59-.91-.57-.27.01-.44.16-.55.4-.11.25-.04.47.12.67.16.2.37.25.61.18.08-.02.16-.06.24-.09.16-.05.27.03.27.2,0,.12-.05.22-.13.3-.13.13-.29.22-.45.31-.15.08-.29.11-.42-.03-.05-.05-.12-.08-.18-.1-.32-.13-.65,0-.8.34-.15.32-.03.68.27.83.17.08.35.11.53.08.37-.05.71-.17,1.03-.37.19-.12.37-.25.56-.38.12-.08.15-.08.25.04.24.31.55.52.93.63.23.07.45.04.66-.06.46-.21.55-.72.19-1.08-.31-.3-.79-.22-.98.17-.02.04-.02.09-.05.12-.03.03-.07.06-.11.06-.1,0-.19-.04-.25-.14-.04-.07,0-.14.04-.19.06-.08.11-.16.18-.24.48-.56,1.08-.98,1.64-1.46.38.31.75.6,1.1.9.18.16.34.33.5.51.08.09.15.21.21.32.05.08.02.16-.05.23-.06.06-.14.09-.23.08-.1-.29-.12-.34-.21-.4-.27-.18-.69-.24-.97.16-.22.32-.15.68.2.91.21.14.44.18.69.12.21-.05.4-.13.57-.26.15-.11.28-.23.4-.37.12-.13.14-.13.28-.04.19.13.37.26.56.38.23.14.48.24.74.3.27.06.53.05.79-.06.28-.11.42-.4.35-.69-.09-.35-.49-.56-.84-.45-.11.04-.2.1-.29.17-.06.05-.13.06-.2.03-.24-.09-.46-.21-.63-.41-.07-.09-.12-.18-.1-.31.03-.14.1-.19.23-.13.16.07.32.12.49.1.32-.04.57-.31.58-.63,0-.33-.28-.63-.61-.64-.41-.02-.71.17-.89.53-.08.15-.12.32-.18.47-.05.12-.12.14-.23.05-.54-.49-1.08-.99-1.61-1.48.03-.13.12-.18.19-.24.28-.23.57-.47.86-.68,1.07-.76,2.26-1.26,3.52-1.6,1.09-.3,2.21-.44,3.34-.52.1.01.19.03.29-.03-.09-.07-.19-.05-.28-.04h0s0,0,0,0c-.12-.02-.25-.06-.37-.07-1.06-.13-2.11-.08-3.16.1-1.43.26-2.77.76-3.98,1.57-.29.2-.57.41-.85.63-.2.16-.2.16-.43,0-.37-.26-.74-.51-1.12-.75-.84-.53-1.73-.94-2.69-1.2-.89-.24-1.79-.38-2.71-.42-.63-.03-1.27,0-1.89.14-.1,0-.2-.02-.28.04Z"/>
      <path class="cls-1" d="M59.97,12.65s0,0,0,0c0,0,0,.01.01.02,0,0,0-.01,0-.02Z"/>
      <path class="cls-1" d="M60.02,12.72s-.02-.03-.04-.04c0,.03.02.05.03.08,0-.01.02-.03.01-.03Z"/>
      <path class="cls-1" d="M5.29,51.12c.54,0,.92-.42.92-.92s-.38-.92-.92-.92-.92.42-.92.92.38.92.92.92Z"/>
      <path class="cls-1" d="M2.69,51.12c.52,0,.92-.42.92-.92s-.4-.92-.92-.92c-.56,0-.92.42-.92.92s.36.92.92.92Z"/>
      <path class="cls-1" d="M38.34,62.38c-.51,0-.94.4-.94.92s.43.94.94.94.94-.4.94-.94-.43-.92-.94-.92Z"/>
      <path class="cls-1" d="M73.19,50.2c0,.51.38.92.92.92s.92-.42.92-.92-.38-.92-.92-.92-.92.42-.92.92Z"/>
      <path class="cls-1" d="M70.59,50.2c0,.51.36.92.92.92.52,0,.92-.42.92-.92s-.4-.92-.92-.92c-.56,0-.92.42-.92.92Z"/>
      <path class="cls-1" d="M59.89,58.39v-9.2l-2.4.45c.79.25.81.38.81.8v7.9c0,1.07-.42,1.73-1.45,1.73h-.83c-.81,0-1.45-.76-1.75-1.61.04-.2.05-.42.05-.65,0-1.66-1.17-3.87-3.36-3.87-2.66,0-3.11,1.66-3.56,3.34-.22.9-.51,1.99-1.05,2.51-.22.18-.52.23-.69.27h-2.71c-.05-3.34-1.81-6.87-4.68-6.87-1.81,0-2.66.99-3.29,2.02-.27.42-.45.56-.72.7l.74,1.36c.56-1.86,1.61-3.45,3.22-3.45,1.46,0,2.89,2.15,2.95,6.23h-8.73c-.81,0-1.45-.76-1.75-1.61.04-.2.05-.42.05-.65,0-1.66-1.17-3.87-3.36-3.87-2.66,0-3.11,1.66-3.54,3.34-.23.9-.52,1.99-1.07,2.51-.22.18-.52.23-.69.27h-5.08c-.58,0-.83-.11-1.07-.31,1.57-.85,3.38-1.97,3.38-3.74,0-2.02-1.61-3.2-3.83-3.2-1.25,0-2.69.52-4.1,1.36-.13.07-.18.13-.23.16.05.05.23.31.38.51.29.38.92,1.19,1.23,1.77.96,1.93,1.3,2.48,1.82,3.07-.47.29-1.59.38-1.75.38h-4.66c-.85-.07-.94-.96-.94-1.45v-4.68c0-.38.02-.85.13-1.32h-.9c-.13.13-.09.2-.13.27-.07.22-.16.45-.2.45,0,0-.11-.07-.31-.2-.42-.27-1.1-.72-2.13-.72-2.28,0-3.7,2.04-3.7,4.12,0,2.24,1.43,4.19,3.32,4.19,1.54,0,2.35-1.1,2.62-1.88,0,1.64,1.01,1.86,2.24,1.88h5.09c.94,0,1.39-.18,1.93-.47,0,.02.02.02.02.02.27.18.7.45,2.04.45h4.81c.96,0,1.48-.31,1.9-.76.54.69,1.3,1.54,2.94,1.54,1.75,0,2.87-.89,3.4-1.99.61.8,1.3,1.21,2.49,1.21h12.85c.96,0,1.48-.31,1.9-.76.52.69,1.3,1.54,2.94,1.54,1.75,0,2.87-.89,3.4-1.99.61.8,1.3,1.21,2.49,1.21h.85c1.54,0,2.66-.83,2.66-2.35ZM5.51,58.49c-.29.96-1.07,1.63-1.95,1.63-.76,0-1.92-.81-1.92-3.47,0-1.86.65-3.6,2.06-3.6,1.81,0,2.01,1.72,2.01,3.25,0,.96-.04,1.64-.2,2.19ZM14.02,56.8c-.36-.8-.81-1.61-1.45-2.37.94-.52,1.97-.85,2.94-.85,1.34,0,2.02.99,2.02,2.37,0,1.72-.85,2.4-2.13,3.2-.47-.52-1.01-1.59-1.39-2.35ZM26.97,60.88c-1.12,0-1.93-.92-2.4-1.5-.02-.04-.05-.09-.09-.11.34-.65.51-1.32.67-1.93l.04-.11c.36-1.41.72-2.71,1.88-2.71h.07c1.32.05,1.95,1.66,1.95,3.38s-.98,2.98-2.11,2.98ZM50.55,60.88c-1.14,0-1.93-.92-2.4-1.5-.02-.04-.07-.09-.09-.11.34-.65.51-1.32.67-1.93l.02-.11c.38-1.41.74-2.71,1.9-2.71h.07c1.32.05,1.95,1.66,1.95,3.38s-.98,2.98-2.11,2.98Z"/>
      <path class="cls-1" d="M100.69,57.81c0-1.66-1.17-3.87-3.38-3.87-2.58.02-3.16,1.68-3.56,3.2-.42,1.48-.83,2.93-2.91,2.93h-5c-.58,0-.83-.11-1.07-.31,1.57-.85,3.38-1.97,3.38-3.74,0-2.02-1.61-3.2-3.83-3.2-1.25,0-2.69.52-4.1,1.36-.13.07-.18.13-.23.16.05.05.23.31.38.51.29.38.92,1.19,1.23,1.77.96,1.93,1.3,2.48,1.82,3.07-.47.29-1.59.38-1.75.38h-4.66c-.85-.07-.94-.96-.94-1.45v-4.68c0-.38.02-.85.13-1.32h-.9c-.13.13-.09.2-.13.27-.07.22-.16.45-.2.45,0,0-.11-.07-.31-.2-.42-.27-1.1-.72-2.13-.72-2.28,0-3.7,2.04-3.7,4.12,0,2.24,1.43,4.19,3.32,4.19,1.54,0,2.35-1.1,2.62-1.88,0,1.64,1.01,1.86,2.24,1.88h5.09c.94,0,1.39-.18,1.93-.47,0,.02.02.02.02.02.27.18.7.45,2.04.45h5.76c.94,0,1.59-.31,2.02-.76.58.67,1.32,1.54,2.98,1.54,2.57,0,3.83-1.95,3.83-3.7ZM74.33,58.49c-.29.96-1.07,1.63-1.95,1.63-.76,0-1.92-.81-1.92-3.47,0-1.86.65-3.6,2.06-3.6,1.81,0,2.01,1.72,2.01,3.25,0,.96-.04,1.64-.2,2.19ZM82.84,56.8c-.36-.8-.81-1.61-1.45-2.37.94-.52,1.97-.85,2.94-.85,1.34,0,2.02.99,2.02,2.37,0,1.72-.85,2.4-2.13,3.2-.47-.52-1.01-1.59-1.39-2.35ZM96.91,60.88c-1.12,0-1.86-.85-2.33-1.39l-.16-.22c.36-.69.51-1.39.7-2.04.36-1.41.72-2.71,1.88-2.71h.07c1.3.05,1.95,1.66,1.95,3.38s-.98,2.98-2.11,2.98Z"/>
      <path class="cls-1" d="M107.32,60.73h10.01l.42-.67h-.67c-.05-3.34-1.81-6.87-4.68-6.87-1.81,0-2.66.99-3.29,2.02-.27.42-.45.56-.72.7l.74,1.36c.56-1.86,1.61-3.45,3.22-3.45,1.46,0,2.89,2.15,2.94,6.23h-8.87c-.76-.05-1.19-.56-1.19-1.52v-9.32l-2.89.13v.6c1.03,0,1.3.16,1.3.6v7.93c0,1.72,1.14,2.26,2.67,2.26h1.01Z"/>
      <path class="cls-1" d="M63.89,60.73v-11.55l-2.37.45c.76.25.78.38.78.8v10.3h1.59Z"/>
      <path class="cls-1" d="M112.24,64.2c.51,0,.94-.4.94-.92s-.43-.94-.94-.94-.94.4-.94.94.43.92.94.92Z"/>
      <path class="cls-1" d="M18.99,67.37c0,.08.09.12.27.12.05,0,.1,0,.14,0,.26,0,.43.07.49.2.06.14.1.46.1.96v3.82c-.02,1.21-.04,1.95-.09,2.2-.05.25-.17.46-.37.64-.2.17-.42.26-.67.26-.14,0-.25-.03-.33-.08-.07-.06-.11-.14-.11-.24,0-.07.02-.14.05-.24.05-.14.08-.25.08-.32,0-.14-.04-.26-.13-.34-.09-.08-.2-.12-.33-.12s-.24.06-.35.17c-.11.11-.16.26-.16.44,0,.32.12.56.35.73.23.17.5.26.81.26.54,0,.99-.2,1.37-.61.38-.41.59-.9.63-1.46.04-.57.07-1.72.07-3.44,0-.3.01-1.34.04-3.11-.46.03-.96.05-1.5.06-.24,0-.36.05-.36.12Z"/>
      <path class="cls-1" d="M32.05,72.29c-.21,0-.35-.06-.42-.18-.07-.12-.1-.35-.1-.69l.03-2.34c0-.53-.03-.9-.1-1.1-.07-.2-.23-.38-.5-.55-.27-.17-.6-.25-1-.25-.3,0-.6.07-.9.21-.3.14-.6.36-.89.64-.21-.28-.44-.49-.69-.63-.25-.14-.53-.21-.82-.21-.32,0-.64.08-.95.25-.31.17-.62.43-.93.77,0-.2.01-.4.02-.59,0-.13-.02-.28-.07-.44-.14,0-.24,0-.31,0-.26,0-.57.02-.91.05-.35.04-.53.06-.56.08-.03.02-.04.05-.04.09,0,.07.05.1.16.11.27,0,.46.06.57.17.11.11.17.25.18.43.01.18.02.69.02,1.54s-.02,1.46-.06,1.83c-.04.38-.1.6-.18.68-.08.08-.23.12-.46.13-.08,0-.12.04-.12.11,0,.08.11.12.34.12h1.92c.16,0,.24-.03.24-.1,0-.05-.01-.09-.03-.1-.02-.01-.09-.02-.19-.02-.26,0-.42-.08-.49-.23-.07-.15-.1-.57-.1-1.24,0-.96.05-1.63.14-2.01.1-.38.28-.68.55-.91.27-.22.55-.33.83-.33.33,0,.58.14.75.42.17.28.26.86.26,1.74,0,.49-.02.98-.05,1.48-.03.5-.09.8-.18.91-.09.11-.26.16-.51.16-.12,0-.18.04-.18.12s.11.12.32.12h2.09c.17,0,.25-.04.25-.11,0-.07-.07-.11-.2-.11h-.11c-.26,0-.43-.06-.51-.19-.08-.13-.11-.43-.11-.91,0-1.37.08-2.32.25-2.86.2-.28.41-.49.63-.63.21-.14.44-.21.66-.21.26,0,.48.09.66.27.18.18.29.41.34.69.05.28.07.73.07,1.37,0,1.35-.04,2.1-.12,2.24-.08.14-.29.22-.63.23-.11,0-.16.05-.16.11,0,.07.09.11.28.11h1.9c.23,0,.34-.04.34-.12,0-.07-.07-.11-.21-.11Z"/>
      <path class="cls-1" d="M38.45,72.23h-.11c-.07.02-.13.03-.17.03-.21,0-.35-.13-.42-.4s-.11-.72-.11-1.35l.04-1.64c0-.5-.04-.83-.11-1.01-.07-.17-.25-.33-.53-.46-.28-.13-.66-.2-1.14-.2-.6,0-1.07.11-1.41.34-.34.23-.51.5-.51.81,0,.18.05.31.16.4.11.09.21.14.3.14.25,0,.42-.19.49-.57.07-.35.17-.58.3-.7.13-.12.33-.17.59-.17.32,0,.56.1.74.31.17.21.26.49.26.86,0,.23-.07.42-.2.57-.13.14-.53.33-1.19.55-.46.16-.79.29-.97.39-.18.1-.35.27-.49.51-.14.24-.21.49-.21.76,0,.36.12.66.36.88.24.22.57.33.98.33.36,0,.67-.07.95-.22.28-.15.52-.37.73-.66,0,.35.05.58.13.69s.24.16.47.16c.81,0,1.22-.08,1.22-.24,0-.07-.05-.1-.14-.1ZM36.66,71.43c-.1.23-.26.41-.47.56-.21.15-.44.22-.68.22s-.42-.09-.58-.27c-.16-.18-.23-.4-.23-.66,0-.29.09-.54.29-.74.19-.2.5-.42.94-.64.44-.23.72-.43.84-.59.03.41.04.78.04,1.12,0,.45-.05.78-.15,1.01Z"/>
      <path class="cls-1" d="M20.62,64.77c.11-.1.17-.22.17-.37s-.06-.28-.17-.38c-.11-.1-.23-.15-.37-.15-.17,0-.29.05-.38.16-.09.11-.14.23-.14.37,0,.15.05.28.16.38.11.1.23.15.36.15s.25-.05.37-.15Z"/>
      <path class="cls-1" d="M104.4,65.12c.1-.12.15-.25.15-.42,0-.14-.06-.26-.19-.38-.12-.12-.26-.17-.42-.17-.17,0-.31.05-.41.16-.11.11-.16.25-.16.42s.06.31.19.41c.12.1.26.15.42.15.18,0,.32-.06.42-.17Z"/>
      <path class="cls-1" d="M76.21,65.12c.1-.12.15-.25.15-.42,0-.14-.06-.26-.19-.38-.12-.12-.26-.17-.42-.17-.17,0-.31.05-.41.16-.11.11-.16.25-.16.42s.06.31.19.41c.12.1.26.15.42.15.18,0,.32-.06.42-.17Z"/>
      <path class="cls-1" d="M44.65,72.23h-.11c-.07.02-.13.03-.17.03-.21,0-.35-.13-.42-.4-.08-.27-.11-.72-.11-1.35l.04-1.64c0-.5-.04-.83-.11-1.01-.07-.17-.25-.33-.53-.46-.28-.13-.66-.2-1.14-.2-.6,0-1.07.11-1.41.34-.34.23-.51.5-.51.81,0,.18.05.31.16.4.11.09.21.14.3.14.25,0,.42-.19.49-.57.07-.35.17-.58.3-.7.13-.12.33-.17.59-.17.32,0,.56.1.74.31.17.21.26.49.26.86,0,.23-.07.42-.2.57-.13.14-.53.33-1.19.55-.46.16-.79.29-.97.39-.18.1-.35.27-.49.51-.14.24-.21.49-.21.76,0,.36.12.66.36.88.24.22.57.33.98.33.36,0,.67-.07.95-.22.28-.15.52-.37.73-.66,0,.35.05.58.13.69.08.11.24.16.47.16.81,0,1.22-.08,1.22-.24,0-.07-.05-.1-.14-.1ZM42.85,71.43c-.1.23-.26.41-.47.56-.21.15-.44.22-.68.22s-.42-.09-.58-.27c-.16-.18-.23-.4-.23-.66,0-.29.1-.54.29-.74.19-.2.5-.42.94-.64.44-.23.72-.43.84-.59.03.41.04.78.04,1.12,0,.45-.05.78-.15,1.01Z"/>
      <path class="cls-1" d="M11.37,64.41h-2.47c-1.13,2.65-2.12,4.68-2.98,6.1-.32-.54-.6-1.08-.85-1.63-.24-.55-.58-1.24-1.01-2.07-.36-.69-.75-1.5-1.17-2.4l-2.2-.05c-.09,0-.16,0-.22,0-.12,0-.17.04-.17.11,0,.06.08.11.24.13.37.05.65.19.84.43.19.24.29.68.29,1.32l-.09,2.77v1.09c.01.91-.08,1.49-.28,1.75-.19.26-.5.4-.91.41-.14,0-.22.05-.22.13,0,.03.02.07.07.1.6-.04,1.09-.06,1.47-.06h.87s.4,0,.4,0h.13c.1,0,.16-.03.16-.09,0-.09-.11-.14-.32-.14-.33,0-.59-.1-.77-.3-.18-.2-.27-.63-.27-1.29l.02-1.24.07-3.76c0-.1.02-.16.06-.16.02,0,.05.02.09.07.04.04.31.56.82,1.55.5.99.93,1.88,1.29,2.65.69,1.37,1.07,2.19,1.15,2.44.03.11.07.16.12.16.03,0,.06-.01.09-.04.02-.03.1-.18.22-.47l.38-.94c.18-.43.66-1.43,1.45-2.98l1.23-2.43c.03-.07.07-.1.12-.1.03,0,.05.06.05.17l-.06,1.47-.12,2.98c0,.85-.03,1.38-.08,1.59-.06.21-.14.36-.25.44-.11.08-.34.15-.69.19-.1.01-.14.05-.14.11,0,.07.07.1.21.1h3.04c.13,0,.19-.02.19-.09s-.05-.1-.16-.12c-.36-.05-.6-.13-.73-.24-.12-.11-.19-.26-.21-.45-.02-.19-.02-.85-.02-1.99,0-.59.02-1.33.05-2.22.03-.89.07-1.5.1-1.82.04-.33.13-.56.27-.7.15-.14.44-.23.88-.26.1,0,.15-.04.15-.11s-.04-.1-.13-.11Z"/>
      <path class="cls-1" d="M17.78,72.33c0-.07-.05-.1-.14-.1h-.11c-.07.02-.13.03-.17.03-.21,0-.35-.13-.42-.4-.08-.27-.11-.72-.11-1.35l.04-1.64c0-.5-.04-.83-.11-1.01-.07-.17-.25-.33-.53-.46-.28-.13-.66-.2-1.14-.2-.6,0-1.07.11-1.41.34-.34.23-.51.5-.51.81,0,.18.05.31.16.4.11.09.21.14.3.14.25,0,.42-.19.49-.57.07-.35.17-.58.3-.7.13-.12.33-.17.59-.17.32,0,.56.1.74.31.17.21.26.49.26.86,0,.23-.07.42-.2.57-.13.14-.53.33-1.19.55-.46.16-.79.29-.97.39-.18.1-.35.27-.49.51-.14.24-.21.49-.21.76,0,.36.12.66.36.88.24.22.57.33.98.33.36,0,.67-.07.95-.22.28-.15.52-.37.73-.66,0,.35.05.58.13.69.08.11.24.16.47.16.81,0,1.22-.08,1.22-.24ZM15.84,71.43c-.1.23-.26.41-.47.56-.21.15-.44.22-.68.22s-.42-.09-.58-.27c-.16-.18-.23-.4-.23-.66,0-.29.09-.54.29-.74.19-.2.5-.42.94-.64.44-.23.72-.43.84-.59.03.41.04.78.04,1.12,0,.45-.05.78-.15,1.01Z"/>
      <path class="cls-1" d="M105.21,72.31c-.19,0-.34-.05-.44-.13-.1-.08-.15-.27-.15-.57v-.74s0-.98,0-.98v-1.3s0-1.4,0-1.4c-.18,0-.5.02-.95.06-.46.03-.7.06-.74.08-.03.02-.05.05-.05.09,0,.07.05.1.15.1.3,0,.5.08.6.2.1.13.16.53.16,1.22l-.04,2.57c0,.34-.03.54-.1.62-.06.07-.21.12-.44.15-.23.03-.34.08-.34.16s.05.11.15.11c.04,0,.08,0,.12-.01.2-.03.57-.05,1.1-.05.33,0,.69.02,1.07.07.04,0,.08,0,.11,0,.09,0,.13-.03.13-.1,0-.08-.11-.13-.34-.14Z"/>
      <path class="cls-1" d="M100.71,69.85c-.14-.11-.43-.26-.88-.47-.72-.32-1.11-.52-1.18-.57-.07-.06-.14-.14-.22-.26-.08-.12-.12-.25-.12-.39,0-.23.1-.42.29-.56.19-.14.43-.22.73-.22.19,0,.38.04.58.13.2.09.38.29.54.6.17.31.26.52.3.64.04.12.09.18.15.18.07,0,.11-.07.11-.2,0-.22-.01-.49-.04-.82-.02-.33-.05-.52-.07-.55s-.05-.05-.08-.05c-.03,0-.07.03-.11.1-.05.07-.1.1-.14.1-.05,0-.11-.02-.17-.05-.41-.21-.78-.32-1.12-.32-.46,0-.85.14-1.17.43-.32.29-.48.64-.48,1.07,0,.22.05.43.15.62.1.19.25.34.43.45.18.11.54.29,1.08.53.79.35,1.18.75,1.18,1.21,0,.29-.11.53-.32.7-.21.17-.46.26-.73.26-.39,0-.73-.16-1.02-.49-.29-.33-.52-.73-.68-1.2-.03-.08-.06-.12-.11-.12-.08,0-.12.08-.12.23,0,.1.01.33.02.69,0,.42.01.69.03.8.01.12.04.18.09.18.06,0,.12-.06.19-.17.05-.09.12-.13.19-.13.04,0,.17.05.39.15.4.19.74.28,1.03.28.49,0,.91-.17,1.26-.52.35-.34.53-.76.53-1.23,0-.2-.05-.4-.14-.58-.1-.19-.21-.33-.35-.44Z"/>
      <path class="cls-1" d="M117.48,67.25s-.09,0-.17.01c-.19.02-.55.02-1.1.02-.19,0-.32,0-.39,0-.19-.01-.3-.02-.33-.02-.1,0-.14.03-.14.1,0,.07.06.11.18.13.43.04.64.23.64.57,0,.26-.06.62-.19,1.06-.13.44-.42,1.27-.87,2.49-.94-2.22-1.41-3.42-1.41-3.62,0-.23.16-.38.49-.47.18-.05.27-.1.27-.17,0-.08-.05-.12-.16-.12-.03,0-.09,0-.18.02-.14.03-.55.04-1.21.04-.31,0-.58-.02-.82-.05-.05,0-.1-.01-.14-.01-.1,0-.15.04-.15.12,0,.07.07.11.2.13.15.02.29.1.41.25.13.14.36.62.71,1.43.35.81.66,1.57.95,2.26.28.7.42,1.19.42,1.46,0,.35-.18.84-.55,1.46-.37.62-.7.94-1,.94-.19,0-.29-.11-.3-.34-.03-.34-.21-.51-.55-.51-.13,0-.26.06-.39.18-.13.12-.19.26-.19.42,0,.19.09.38.28.57.19.19.44.28.77.28s.63-.12.96-.37c.32-.25.64-.69.94-1.33.3-.64.7-1.69,1.19-3.14.5-1.48.85-2.43,1.04-2.83.19-.41.45-.65.78-.72.11-.03.17-.07.17-.13,0-.07-.05-.11-.16-.11Z"/>
      <path class="cls-1" d="M94.91,67.21c-.33,0-.64.12-.93.35-.3.23-.57.58-.83,1.04-.03-.67-.06-1.12-.09-1.34l-1.14.06c-.35.02-.54.04-.57.06-.03.02-.05.05-.05.08,0,.07.07.11.22.12.36.02.57.16.62.43.06.27.08,1.09.08,2.44,0,.92-.03,1.46-.09,1.6-.06.14-.22.23-.48.24-.19,0-.28.05-.28.11,0,.07.07.11.21.11h1.98c.19,0,.29-.04.29-.13,0-.05-.04-.08-.11-.09-.27-.03-.44-.11-.51-.23-.07-.12-.1-.58-.1-1.38,0-.88.04-1.45.11-1.73.07-.28.22-.53.44-.76.22-.23.43-.35.64-.35.22,0,.39.14.53.42.11.22.24.33.4.33.33,0,.5-.2.5-.59,0-.21-.08-.39-.25-.55-.17-.16-.36-.24-.59-.24Z"/>
      <path class="cls-1" d="M51.54,72.33c-.1,0-.21-.05-.31-.13-.11-.08-.16-.18-.18-.29-.01-.11-.02-.43-.02-.95l.04-1.64c0-.79-.15-1.35-.44-1.66-.29-.31-.71-.47-1.26-.47-.69,0-1.28.31-1.78.93-.01-.26-.02-.59-.02-.98l.02-3.08c-.47.03-.9.04-1.31.04-.24,0-.37,0-.4,0-.03,0-.04.03-.04.06,0,.06.06.1.17.12.19.04.35.17.48.39.13.23.21.59.22,1.09.01.5.02,1.56.02,3.18,0,.9-.02,1.65-.07,2.23-.05.58-.11.91-.18,1-.07.09-.2.14-.4.17-.1.01-.15.05-.15.11,0,.07.06.1.19.1.2-.01.43-.02.7-.02l1.25.02c.1,0,.15-.03.15-.1,0-.06-.05-.09-.15-.11-.25-.05-.41-.15-.46-.31-.05-.16-.08-.49-.08-1,0-.76.02-1.4.07-1.92.05-.52.21-.92.48-1.19.27-.27.58-.41.94-.41s.66.16.88.48c.22.32.33,1.03.33,2.14,0,1.03-.03,1.64-.08,1.83-.05.19-.23.31-.52.34-.1.01-.14.05-.14.11,0,.05.04.09.11.11h1.84c.18,0,.27-.04.27-.11,0-.05-.06-.07-.17-.07Z"/>
      <path class="cls-1" d="M110.53,71.77s-.08.03-.17.09c-.27.16-.51.24-.73.24-.3,0-.54-.1-.7-.31-.16-.21-.24-.65-.24-1.33,0-.88.03-1.78.09-2.69.87-.06,1.41-.09,1.62-.09.06-.05.09-.17.09-.36,0-.05-.13-.08-.36-.08l-1.36.02v-.96c0-.21,0-.4.01-.56,0-.04,0-.08,0-.12,0-.12-.04-.17-.11-.17s-.12.07-.14.22c-.07.55-.3.97-.7,1.27-.4.3-.68.48-.85.54-.1.03-.15.08-.15.13,0,.06.05.09.14.09l.37.02c.36.02.56.04.59.04-.07,1.48-.11,2.52-.11,3.13s.11,1.02.32,1.32c.21.29.53.44.95.44s.79-.11,1.08-.32c.29-.21.44-.37.44-.47,0-.06-.03-.09-.08-.09Z"/>
      <path class="cls-1" d="M73.03,72.29c-.21-.06-.35-.14-.41-.23-.06-.1-.1-.34-.1-.72l.04-2.09c0-.62-.07-1.06-.21-1.32-.14-.26-.35-.44-.61-.54-.26-.11-.53-.16-.82-.16-.37,0-.71.1-1.02.3-.31.2-.6.51-.85.91-.02-.58-.08-.99-.18-1.23-.5.01-.78.02-.84.02h-.5c-.12,0-.19.03-.19.1,0,.07.08.12.24.15.18.04.32.15.42.33.1.18.15.63.15,1.37,0,.79-.01,1.44-.03,1.97-.02.53-.07.84-.13.93-.07.09-.19.16-.38.2-.2.04-.3.09-.3.16,0,.07.09.1.27.1h.49c.65-.01,1.03,0,1.14,0l.32.02c.09,0,.14-.03.14-.09,0-.07-.05-.11-.14-.12-.29-.03-.47-.12-.54-.28-.07-.15-.11-.5-.11-1.06,0-1.22.16-2.09.48-2.61.32-.52.72-.78,1.21-.78.33,0,.6.14.82.43.22.29.33.87.33,1.74,0,.32,0,.73-.03,1.24-.02.51-.04.81-.07.89-.03.09-.08.16-.15.21-.07.05-.22.11-.45.15-.08.02-.12.05-.12.1,0,.07.08.11.23.11.38-.03.74-.04,1.08-.04.37,0,.65.02.84.06.03,0,.06,0,.09,0,.07,0,.11-.03.11-.09,0-.05-.07-.09-.22-.14Z"/>
      <path class="cls-1" d="M65.81,64.4h-2.48c-.2,0-.3.04-.3.12,0,.09.08.13.23.13.38,0,.67.15.86.44.19.29.29.91.29,1.84,0,1.82-.06,3.01-.17,3.55-.11.55-.36.96-.74,1.23-.38.28-.93.42-1.66.42s-1.24-.15-1.65-.45c-.4-.3-.64-.7-.72-1.21-.08-.51-.11-1.42-.11-2.74,0-1.1.04-1.82.11-2.15.07-.33.18-.57.32-.7.14-.13.36-.21.65-.24.13-.01.2-.06.2-.13s-.09-.11-.27-.11h-3.11c-.17,0-.26.04-.26.13,0,.07.07.1.21.1.43,0,.71.18.84.52.13.34.2,1.28.2,2.8l-.02,1.72c0,.75.09,1.32.27,1.7.18.38.52.68,1.03.91.51.23,1.12.34,1.84.34s1.29-.1,1.78-.31c.48-.2.84-.47,1.08-.81.24-.33.4-.84.47-1.52.07-.68.11-1.5.11-2.47,0-.78.02-1.37.07-1.77.05-.4.14-.68.29-.83.15-.15.38-.25.69-.3.09-.01.14-.05.14-.11,0-.08-.06-.12-.17-.12Z"/>
      <path class="cls-1" d="M77.02,72.31c-.19,0-.34-.05-.44-.13-.1-.08-.15-.27-.15-.57v-.74s0-.98,0-.98v-1.3s0-1.4,0-1.4c-.18,0-.5.02-.95.06-.46.03-.7.06-.74.08-.03.02-.05.05-.05.09,0,.07.05.1.15.1.3,0,.5.08.6.2.1.13.16.53.16,1.22l-.04,2.57c0,.34-.03.54-.1.62-.06.07-.21.12-.44.15-.23.03-.34.08-.34.16s.05.11.15.11c.04,0,.08,0,.12-.01.2-.03.57-.05,1.1-.05.33,0,.69.02,1.07.07.04,0,.08,0,.11,0,.09,0,.13-.03.13-.1,0-.08-.11-.13-.34-.14Z"/>
      <path class="cls-1" d="M84.16,67.28h-.56s-.93,0-.93,0c-.1,0-.15.04-.15.12,0,.07.07.1.2.11.23.02.35.12.35.31,0,.44-.45,1.64-1.34,3.6-1-2.07-1.5-3.26-1.5-3.58,0-.18.11-.29.32-.32.15-.02.22-.07.22-.13,0-.08-.07-.12-.22-.12-.06,0-.35,0-.86,0h-1.08c-.12-.01-.18.03-.18.11,0,.06.05.1.14.12.15.02.25.05.3.09.05.04.14.14.25.3.11.17.3.54.56,1.13l.77,1.72.74,1.6c.07.17.14.26.19.26.07,0,.13-.07.18-.21.03-.11.15-.37.34-.77.2-.42.52-1.19.95-2.31.26-.67.47-1.12.62-1.37.15-.25.4-.39.74-.43.1,0,.14-.04.14-.11,0-.08-.07-.12-.2-.12Z"/>
      <path class="cls-1" d="M87.79,67.19c-.6,0-1.15.27-1.68.81-.52.54-.78,1.22-.78,2.03,0,.76.24,1.38.71,1.88.48.49,1.06.74,1.74.74.47,0,.89-.1,1.27-.3.38-.2.65-.44.81-.73,0-.11-.04-.16-.11-.16-.03,0-.11.06-.24.17-.43.4-.89.6-1.39.6s-.94-.2-1.28-.61c-.35-.41-.52-.9-.52-1.49,0-.12,0-.29.02-.5l3.11-.05c.29,0,.45-.02.48-.06.03-.04.04-.11.04-.19,0-.57-.23-1.07-.68-1.49-.45-.42-.95-.64-1.51-.64ZM88.83,69.17c-.13.09-.32.14-.57.15l-.33.02c-.51,0-1.03-.01-1.57-.04.09-.67.28-1.15.57-1.45.3-.3.59-.44.89-.44.32,0,.6.13.84.39.24.26.36.56.36.91,0,.22-.07.38-.2.47Z"/>
    </g>
  </g>
</svg>